<?xml version="1.0" encoding="utf-8"?>
<!-- Generator: Adobe Illustrator 16.0.0, SVG Export Plug-In . SVG Version: 6.00 Build 0)  -->
<!DOCTYPE svg PUBLIC "-//W3C//DTD SVG 1.1//EN" "http://www.w3.org/Graphics/SVG/1.1/DTD/svg11.dtd">
<svg version="1.1" xmlns="http://www.w3.org/2000/svg" xmlns:xlink="http://www.w3.org/1999/xlink" x="0px" y="0px"
	 width="312.513px" height="134px" viewBox="0 0 312.513 134" enable-background="new 0 0 312.513 134" xml:space="preserve">
<g id="Layer_2">
</g>
<g id="Layer_1">
	<g>
		<path fill="#27AAE1" d="M140.881,35.876h20.306l-1.584,7.921h-11.161l-2.521,12.889h10.585l-1.439,7.561h-10.514l-3.888,20.162
			h-9.073L140.881,35.876z"/>
		<path fill="#27AAE1" d="M168.601,35.876h9.001l-7.776,40.684h11.809l-1.512,7.849h-20.811L168.601,35.876z"/>
		<path fill="#27AAE1" d="M201.001,35.876l-6.048,31.539c-0.433,2.16-0.648,3.889-0.648,5.329c0,2.808,1.368,4.249,3.601,4.249
			c2.88,0,4.824-2.016,6.192-9.217l6.12-31.899h9.001l-5.832,30.603c-2.232,11.737-6.769,18.506-16.489,18.506
			c-7.921,0-11.521-4.32-11.521-11.449c0-2.088,0.36-4.68,0.864-7.632l5.688-30.027H201.001z"/>
		<path fill="#27AAE1" d="M230.088,44.373h-8.425l1.656-8.497h25.851l-1.656,8.497h-8.425l-7.633,40.036h-9.001L230.088,44.373z"/>
		<path fill="#27AAE1" d="M268.609,62.95h-10.656l-2.664,13.465h12.24l-1.584,7.993h-21.17l9.289-48.532h20.306l-1.584,7.921
			h-11.161l-2.376,11.521h10.873L268.609,62.95z"/>
		<path fill="#27AAE1" d="M295.104,83.904c-1.512,0.648-3.744,0.936-6.624,0.936c-12.313,0-14.113-10.945-14.113-16.562
			c0-11.737,3.601-21.026,9.289-26.714c4.176-4.32,9.433-6.121,14.401-6.121c2.447,0,4.968,0.576,5.544,1.008l-2.521,7.849
			c-0.936-0.432-2.231-0.648-4.176-0.648c-2.521,0-5.329,1.512-7.272,4.032c-3.312,4.176-5.688,10.801-5.688,18.578
			c0,6.265,1.728,10.441,6.552,10.441c1.729,0,3.745-0.288,4.969-0.792L295.104,83.904z"/>
	</g>
	<g>
		<path fill="#27AAE1" d="M135.694,95.541l-0.6,3.154h2.938l0.6-3.154h1.727l-1.535,8.083h-1.727l0.636-3.394h-2.927l-0.647,3.394
			h-1.728l1.535-8.083H135.694z"/>
		<path fill="#27AAE1" d="M142.163,103.624l-1.007-8.083h1.786l0.36,3.85c0.084,0.852,0.144,1.643,0.191,2.483h0.024
			c0.3-0.792,0.684-1.655,1.079-2.495l1.812-3.838h1.931l-4.174,8.083H142.163z"/>
		<path fill="#27AAE1" d="M149.363,101.525l-0.96,2.099h-1.835l3.934-8.083h2.219l0.948,8.083h-1.812l-0.168-2.099H149.363z
			 M151.618,100.206l-0.156-1.739c-0.036-0.444-0.084-1.091-0.12-1.583h-0.023c-0.204,0.492-0.433,1.115-0.648,1.583l-0.804,1.739
			H151.618z"/>
		<path fill="#27AAE1" d="M160.269,103.396c-0.432,0.192-1.164,0.348-2.135,0.348c-2.135,0-3.574-1.295-3.574-3.43
			c0-1.811,0.815-3.227,2.039-4.042c0.839-0.587,1.835-0.863,2.974-0.863c0.876,0,1.535,0.204,1.764,0.348l-0.468,1.403
			c-0.24-0.12-0.768-0.264-1.464-0.264c-0.695,0-1.354,0.216-1.847,0.624c-0.684,0.552-1.115,1.475-1.115,2.603
			c0,1.283,0.72,2.146,2.146,2.146c0.564,0,1.128-0.096,1.535-0.264L160.269,103.396z"/>
		<path fill="#27AAE1" d="M164.927,95.66c0.684-0.12,1.451-0.18,2.23-0.18c1.26,0,2.268,0.288,2.951,0.875
			c0.647,0.54,1.055,1.343,1.067,2.531c0,1.559-0.66,2.914-1.667,3.718c-0.936,0.744-2.123,1.067-3.874,1.067
			c-0.972,0-1.812-0.072-2.207-0.144L164.927,95.66z M165.407,102.233c0.204,0.036,0.456,0.048,0.756,0.048
			c0.936,0,1.763-0.336,2.291-0.947c0.552-0.624,0.839-1.463,0.839-2.435c0-1.271-0.707-2.027-2.135-2.027
			c-0.3,0-0.552,0.012-0.731,0.048L165.407,102.233z"/>
		<path fill="#27AAE1" d="M176.83,100.194h-2.879l-0.372,1.955h3.227l-0.276,1.475h-4.953l1.535-8.083h4.786l-0.288,1.475h-3.047
			l-0.336,1.727h2.879L176.83,100.194z"/>
		<path fill="#27AAE1" d="M178.128,101.753c0.479,0.288,1.163,0.516,1.906,0.516c0.672,0,1.283-0.312,1.283-0.947
			c0-0.456-0.348-0.755-1.091-1.139c-0.864-0.468-1.68-1.092-1.68-2.147c0-1.631,1.428-2.626,3.19-2.626
			c0.983,0,1.56,0.216,1.907,0.408l-0.54,1.439c-0.264-0.144-0.839-0.372-1.511-0.36c-0.804,0-1.224,0.408-1.224,0.852
			c0,0.468,0.492,0.756,1.176,1.14c0.983,0.516,1.606,1.175,1.606,2.135c0,1.799-1.487,2.723-3.286,2.723
			c-1.127,0-1.931-0.288-2.314-0.576L178.128,101.753z"/>
		<path fill="#27AAE1" d="M187.126,95.541l-1.535,8.083h-1.727l1.535-8.083H187.126z"/>
		<path fill="#27AAE1" d="M193.869,103.252c-0.624,0.204-1.595,0.456-2.614,0.456c-1.115,0-2.027-0.288-2.699-0.888
			c-0.647-0.576-1.019-1.463-1.019-2.495c0-1.511,0.623-2.818,1.654-3.694c0.912-0.755,2.159-1.175,3.562-1.175
			c1.056,0,1.835,0.204,2.146,0.36l-0.516,1.463c-0.372-0.167-0.995-0.335-1.715-0.335c-0.804,0-1.523,0.228-2.062,0.647
			c-0.696,0.552-1.164,1.511-1.164,2.615c0,1.355,0.804,2.039,2.075,2.039c0.396,0,0.684-0.06,0.875-0.144l0.324-1.703h-1.247
			l0.264-1.379h2.938L193.869,103.252z"/>
		<path fill="#27AAE1" d="M195.264,103.624l1.535-8.083h2.027l1.067,3.082c0.324,1.032,0.54,1.871,0.731,2.759h0.036
			c0.036-0.828,0.144-1.715,0.372-2.902l0.552-2.938h1.606l-1.522,8.083h-1.787l-1.128-3.226c-0.359-1.091-0.575-1.823-0.791-2.819
			l-0.036,0.012c-0.096,0.78-0.288,1.931-0.528,3.202l-0.527,2.831H195.264z"/>
		<path fill="#27AAE1" d="M207.191,97.244v2.626h2.482v1.104h-2.482v2.65h-1.164v-2.65h-2.482V99.87h2.482v-2.626H207.191z"/>
		<path fill="#27AAE1" d="M211.908,95.672c0.576-0.108,1.319-0.192,2.123-0.192c0.84,0,1.464,0.108,2.003,0.432
			c0.54,0.276,0.936,0.792,0.936,1.476c0,1.019-0.756,1.667-1.631,1.919v0.036c0.779,0.24,1.271,0.875,1.271,1.763
			c0,0.863-0.468,1.499-1.104,1.919c-0.684,0.456-1.703,0.647-3.047,0.647c-0.911,0-1.643-0.06-2.038-0.144L211.908,95.672z
			 M212.34,102.293c0.203,0.024,0.407,0.036,0.659,0.036c0.936,0,1.787-0.372,1.787-1.271c0-0.804-0.672-1.043-1.476-1.043h-0.539
			L212.34,102.293z M213.036,98.755h0.575c0.948,0,1.596-0.408,1.596-1.092c0-0.587-0.479-0.839-1.14-0.839
			c-0.3,0-0.54,0.024-0.672,0.06L213.036,98.755z"/>
		<path fill="#27AAE1" d="M220.523,95.541l-0.888,4.653c-0.06,0.276-0.084,0.6-0.084,0.959c0,0.647,0.396,1.151,1.176,1.151
			c0.899,0,1.499-0.6,1.787-2.099l0.888-4.666h1.727l-0.876,4.593c-0.468,2.447-1.547,3.622-3.741,3.622
			c-1.667,0-2.687-0.852-2.687-2.579c0-0.348,0.048-0.744,0.12-1.127l0.852-4.509H220.523z"/>
		<path fill="#27AAE1" d="M228.383,95.541l-1.535,8.083h-1.728l1.535-8.083H228.383z"/>
		<path fill="#27AAE1" d="M229.98,95.541h1.728l-1.247,6.572h3.105l-0.287,1.511h-4.834L229.98,95.541z"/>
		<path fill="#27AAE1" d="M235.812,95.66c0.684-0.12,1.451-0.18,2.23-0.18c1.26,0,2.268,0.288,2.951,0.875
			c0.647,0.54,1.055,1.343,1.067,2.531c0,1.559-0.66,2.914-1.667,3.718c-0.936,0.744-2.123,1.067-3.874,1.067
			c-0.972,0-1.812-0.072-2.207-0.144L235.812,95.66z M236.292,102.233c0.204,0.036,0.456,0.048,0.756,0.048
			c0.936,0,1.763-0.336,2.291-0.947c0.552-0.624,0.839-1.463,0.839-2.435c0-1.271-0.707-2.027-2.135-2.027
			c-0.3,0-0.552,0.012-0.731,0.048L236.292,102.233z"/>
		<path fill="#27AAE1" d="M250.738,103.396c-0.432,0.192-1.164,0.348-2.135,0.348c-2.135,0-3.574-1.295-3.574-3.43
			c0-1.811,0.815-3.227,2.039-4.042c0.839-0.587,1.835-0.863,2.974-0.863c0.876,0,1.535,0.204,1.764,0.348l-0.468,1.403
			c-0.24-0.12-0.768-0.264-1.464-0.264c-0.695,0-1.354,0.216-1.847,0.624c-0.684,0.552-1.115,1.475-1.115,2.603
			c0,1.283,0.72,2.146,2.146,2.146c0.564,0,1.128-0.096,1.535-0.264L250.738,103.396z"/>
		<path fill="#27AAE1" d="M259.424,98.779c0,1.475-0.516,2.902-1.439,3.814c-0.755,0.731-1.774,1.163-2.986,1.163
			c-2.099,0-3.274-1.487-3.274-3.37c0-1.463,0.54-2.915,1.487-3.826c0.756-0.72,1.787-1.151,2.951-1.151
			C258.297,95.409,259.424,96.848,259.424,98.779z M254.567,97.459c-0.647,0.636-1.007,1.895-1.007,2.866
			c0,1.14,0.516,1.991,1.69,1.991c0.504,0,0.983-0.228,1.355-0.588c0.636-0.636,0.983-1.967,0.983-2.902
			c0-1.007-0.359-1.979-1.631-1.979C255.418,96.848,254.939,97.076,254.567,97.459z"/>
		<path fill="#27AAE1" d="M266.589,103.624l0.491-3.334c0.132-0.875,0.312-1.991,0.54-3.154h-0.036
			c-0.443,1.043-0.947,2.159-1.392,3.046l-1.654,3.31h-1.344l-0.288-3.274c-0.071-0.887-0.132-2.003-0.18-3.082h-0.023
			c-0.229,1.067-0.468,2.279-0.672,3.154l-0.804,3.334h-1.583l2.026-8.083h2.315l0.252,3.07c0.048,0.755,0.132,1.679,0.144,2.579
			h0.048c0.312-0.899,0.743-1.847,1.092-2.579l1.499-3.07h2.339l-1.092,8.083H266.589z"/>
		<path fill="#27AAE1" d="M271.187,95.696c0.517-0.132,1.332-0.216,2.111-0.216c0.72,0,1.56,0.12,2.146,0.54
			c0.54,0.372,0.876,0.936,0.876,1.715c0,1.02-0.468,1.787-1.104,2.279c-0.659,0.516-1.595,0.744-2.578,0.744
			c-0.288,0-0.528-0.024-0.708-0.048l-0.552,2.915h-1.691L271.187,95.696z M272.195,99.307c0.18,0.036,0.372,0.06,0.66,0.06
			c1.043,0,1.727-0.671,1.727-1.475c0-0.779-0.563-1.031-1.235-1.031c-0.323,0-0.552,0.024-0.695,0.06L272.195,99.307z"/>
		<path fill="#27AAE1" d="M277.931,101.525l-0.96,2.099h-1.835l3.934-8.083h2.219l0.948,8.083h-1.812l-0.168-2.099H277.931z
			 M280.186,100.206l-0.156-1.739c-0.036-0.444-0.084-1.091-0.12-1.583h-0.023c-0.204,0.492-0.433,1.115-0.648,1.583l-0.804,1.739
			H280.186z"/>
		<path fill="#27AAE1" d="M283.116,103.624l1.535-8.083h2.027l1.067,3.082c0.324,1.032,0.54,1.871,0.731,2.759h0.036
			c0.036-0.828,0.144-1.715,0.372-2.902l0.552-2.938h1.606l-1.522,8.083h-1.787l-1.128-3.226c-0.359-1.091-0.575-1.823-0.791-2.819
			l-0.036,0.012c-0.096,0.78-0.288,1.931-0.528,3.202l-0.527,2.831H283.116z"/>
		<path fill="#27AAE1" d="M292.679,103.624l0.624-3.298l-1.571-4.785h1.847l0.516,2.051c0.145,0.672,0.229,1.056,0.312,1.463h0.023
			c0.24-0.432,0.479-0.888,0.828-1.476l1.211-2.039h2.062l-3.489,4.75l-0.636,3.334H292.679z"/>
	</g>
	<g>
		<path fill="#27AAE1" d="M104.827,65.365c3.626,0,7.374,0.064,11.243,0.199c-0.003-0.613-0.018-1.222-0.042-1.829
			c-3.925,0.137-7.729,0.204-11.405,0.204c-39.552,0-64.959-7.559-79.77-14.32c-4.413-2.014-8.138-4.058-11.265-6.006
			c-3.08,6.766-4.796,14.282-4.796,22.199c0,7.253,1.443,14.169,4.052,20.479c3.312-2.125,7.345-4.383,12.213-6.606
			C39.867,72.924,65.275,65.365,104.827,65.365z"/>
		<path fill="#27AAE1" d="M110.828,75.851c1.42,0,2.852,0.018,4.293,0.053c0.115-0.61,0.225-1.222,0.319-1.839
			c-42.306-0.722-68.242,9.423-82.847,18.469c-4.376,2.71-7.998,5.473-10.974,8.084c1.972,2.31,4.135,4.45,6.467,6.396
			c8.189-8.412,17.762-15.2,28.579-20.247C72.215,79.512,90.402,75.851,110.828,75.851z"/>
		<path fill="#27AAE1" d="M66.92,54.277C52.953,51.05,40.61,46.131,30.23,39.655c-3.821-2.384-7.085-4.798-9.866-7.123
			c-1.941,2.45-3.672,5.071-5.167,7.842c3.137,1.979,6.931,4.075,11.475,6.132c15.798,7.149,43.971,15.212,89.104,13.648
			c-0.048-0.446-0.1-0.891-0.157-1.334c-1.599,0.03-3.19,0.05-4.765,0.05C94.874,58.87,80.149,57.334,66.92,54.277z"/>
		<path fill="#27AAE1" d="M26.876,82.801c-5.064,2.292-9.199,4.633-12.528,6.806c1.431,2.887,3.113,5.627,5.02,8.191
			c3.027-2.636,6.681-5.41,11.066-8.146c10.379-6.477,22.723-11.396,36.69-14.623c13.229-3.057,27.953-4.592,43.934-4.592
			c1.589,0,3.195,0.02,4.81,0.05c0.038-0.444,0.071-0.889,0.099-1.335C70.841,67.589,42.673,75.651,26.876,82.801z"/>
		<path fill="#27AAE1" d="M110.624,53.455c-20.426,0-38.612-3.661-54.163-10.916c-10.22-4.767-19.324-11.098-27.205-18.878
			c-2.355,1.857-4.551,3.905-6.563,6.124c2.72,2.282,5.93,4.654,9.697,6.987c14.581,9.032,40.454,19.16,82.64,18.474
			c-0.124-0.617-0.258-1.229-0.401-1.839C113.285,53.437,111.949,53.455,110.624,53.455z"/>
		<path fill="#27AAE1" d="M30.929,109.229c8.846,6.429,19.73,10.224,31.502,10.224c24.901,0,45.836-16.967,51.882-39.971
			C78.921,78.736,50.949,88.724,30.929,109.229z"/>
		<path fill="#27AAE1" d="M113.65,49.83c-6.801-21.819-27.16-37.657-51.219-37.657c-11.229,0-21.649,3.453-30.265,9.351
			C51.991,40.965,79.316,50.466,113.65,49.83z"/>
	</g>
</g>
<g id="Layer_3">
</g>
</svg>
